<mxfile host="Electron" modified="2024-03-17T02:22:41.027Z" agent="Mozilla/5.0 (Windows NT 10.0; Win64; x64) AppleWebKit/537.36 (KHTML, like Gecko) draw.io/22.0.3 Chrome/114.0.5735.289 Electron/25.8.4 Safari/537.36" etag="f9KJ0u1lb17Kr98Oej2R" version="22.0.3" type="device">
  <diagram name="Page-1" id="ubDXstVEy7a0KQwrbA6t">
    <mxGraphModel dx="1036" dy="606" grid="1" gridSize="10" guides="1" tooltips="1" connect="1" arrows="1" fold="1" page="1" pageScale="1" pageWidth="827" pageHeight="1169" math="0" shadow="0">
      <root>
        <mxCell id="0" />
        <mxCell id="1" parent="0" />
        <mxCell id="GTU_rNjX-6D29jfX396c-12" style="edgeStyle=orthogonalEdgeStyle;rounded=0;orthogonalLoop=1;jettySize=auto;html=1;" parent="1" source="GTU_rNjX-6D29jfX396c-1" target="GTU_rNjX-6D29jfX396c-9" edge="1">
          <mxGeometry relative="1" as="geometry" />
        </mxCell>
        <mxCell id="GTU_rNjX-6D29jfX396c-1" value="MouseRecorder" style="rounded=0;whiteSpace=wrap;html=1;" parent="1" vertex="1">
          <mxGeometry x="104" y="340" width="120" height="60" as="geometry" />
        </mxCell>
        <mxCell id="GTU_rNjX-6D29jfX396c-13" style="edgeStyle=orthogonalEdgeStyle;rounded=0;orthogonalLoop=1;jettySize=auto;html=1;" parent="1" source="GTU_rNjX-6D29jfX396c-2" target="GTU_rNjX-6D29jfX396c-9" edge="1">
          <mxGeometry relative="1" as="geometry" />
        </mxCell>
        <mxCell id="GTU_rNjX-6D29jfX396c-2" value="KeyboardRecorder" style="rounded=0;whiteSpace=wrap;html=1;" parent="1" vertex="1">
          <mxGeometry x="304" y="340" width="120" height="60" as="geometry" />
        </mxCell>
        <mxCell id="GTU_rNjX-6D29jfX396c-5" style="edgeStyle=orthogonalEdgeStyle;rounded=0;orthogonalLoop=1;jettySize=auto;html=1;exitX=0.5;exitY=1;exitDx=0;exitDy=0;" parent="1" source="GTU_rNjX-6D29jfX396c-3" target="GTU_rNjX-6D29jfX396c-1" edge="1">
          <mxGeometry relative="1" as="geometry" />
        </mxCell>
        <mxCell id="GTU_rNjX-6D29jfX396c-3" value="MouseClick" style="rounded=0;whiteSpace=wrap;html=1;" parent="1" vertex="1">
          <mxGeometry x="64" y="250" width="90" height="40" as="geometry" />
        </mxCell>
        <mxCell id="GTU_rNjX-6D29jfX396c-6" style="edgeStyle=orthogonalEdgeStyle;rounded=0;orthogonalLoop=1;jettySize=auto;html=1;" parent="1" source="GTU_rNjX-6D29jfX396c-4" target="GTU_rNjX-6D29jfX396c-1" edge="1">
          <mxGeometry relative="1" as="geometry" />
        </mxCell>
        <mxCell id="GTU_rNjX-6D29jfX396c-4" value="MouseScroll" style="rounded=0;whiteSpace=wrap;html=1;" parent="1" vertex="1">
          <mxGeometry x="174" y="250" width="90" height="40" as="geometry" />
        </mxCell>
        <mxCell id="GTU_rNjX-6D29jfX396c-8" style="edgeStyle=orthogonalEdgeStyle;rounded=0;orthogonalLoop=1;jettySize=auto;html=1;" parent="1" source="GTU_rNjX-6D29jfX396c-7" target="GTU_rNjX-6D29jfX396c-2" edge="1">
          <mxGeometry relative="1" as="geometry" />
        </mxCell>
        <mxCell id="GTU_rNjX-6D29jfX396c-7" value="KeyRelease" style="rounded=0;whiteSpace=wrap;html=1;" parent="1" vertex="1">
          <mxGeometry x="319" y="250" width="90" height="40" as="geometry" />
        </mxCell>
        <mxCell id="62Zi-6ePFO4DLIWbidn9-2" style="edgeStyle=orthogonalEdgeStyle;rounded=0;orthogonalLoop=1;jettySize=auto;html=1;" edge="1" parent="1" source="GTU_rNjX-6D29jfX396c-9" target="62Zi-6ePFO4DLIWbidn9-1">
          <mxGeometry relative="1" as="geometry" />
        </mxCell>
        <mxCell id="GTU_rNjX-6D29jfX396c-9" value="Interaction" style="rounded=0;whiteSpace=wrap;html=1;" parent="1" vertex="1">
          <mxGeometry x="199" y="440" width="135" height="70" as="geometry" />
        </mxCell>
        <mxCell id="GTU_rNjX-6D29jfX396c-10" value="Stores and has methods for handling raw events." style="text;html=1;align=center;verticalAlign=middle;resizable=0;points=[];autosize=1;strokeColor=none;fillColor=none;" parent="1" vertex="1">
          <mxGeometry x="434" y="355" width="280" height="30" as="geometry" />
        </mxCell>
        <mxCell id="GTU_rNjX-6D29jfX396c-11" value="Dataclasses for raw events.&lt;br&gt;&lt;br&gt;All of these are timestamped via the&lt;br&gt;&amp;nbsp;Timestamped class, and store the&lt;br&gt;&amp;nbsp;context via the Context class.." style="text;html=1;align=center;verticalAlign=middle;resizable=0;points=[];autosize=1;strokeColor=none;fillColor=none;" parent="1" vertex="1">
          <mxGeometry x="459" y="225" width="210" height="90" as="geometry" />
        </mxCell>
        <mxCell id="GTU_rNjX-6D29jfX396c-15" value="Recordings can be parsed into Interaction objects, which represent a &lt;br&gt;high-level version of a set of connected actions (such as typing).&lt;br&gt;Interaction objects are structured in such a way that they can be easily&lt;br&gt;converted to English by passing values into a formatted string." style="text;html=1;align=center;verticalAlign=middle;resizable=0;points=[];autosize=1;strokeColor=none;fillColor=none;" parent="1" vertex="1">
          <mxGeometry x="364" y="440" width="400" height="70" as="geometry" />
        </mxCell>
        <mxCell id="GTU_rNjX-6D29jfX396c-16" value="LLM" style="ellipse;whiteSpace=wrap;html=1;" parent="1" vertex="1">
          <mxGeometry x="206.5" y="670" width="120" height="80" as="geometry" />
        </mxCell>
        <mxCell id="Vo1cLqMYJvYFBllhz8Qg-3" style="rounded=0;orthogonalLoop=1;jettySize=auto;html=1;" parent="1" source="Vo1cLqMYJvYFBllhz8Qg-1" target="GTU_rNjX-6D29jfX396c-3" edge="1">
          <mxGeometry relative="1" as="geometry" />
        </mxCell>
        <mxCell id="Vo1cLqMYJvYFBllhz8Qg-4" style="rounded=0;orthogonalLoop=1;jettySize=auto;html=1;" parent="1" source="Vo1cLqMYJvYFBllhz8Qg-1" target="GTU_rNjX-6D29jfX396c-4" edge="1">
          <mxGeometry relative="1" as="geometry" />
        </mxCell>
        <mxCell id="Vo1cLqMYJvYFBllhz8Qg-1" value="Gets the Context control from mouse pointer" style="text;html=1;strokeColor=none;fillColor=none;align=center;verticalAlign=middle;whiteSpace=wrap;rounded=0;" parent="1" vertex="1">
          <mxGeometry x="91.5" y="170" width="145" height="30" as="geometry" />
        </mxCell>
        <mxCell id="Vo1cLqMYJvYFBllhz8Qg-6" style="edgeStyle=orthogonalEdgeStyle;rounded=0;orthogonalLoop=1;jettySize=auto;html=1;" parent="1" source="Vo1cLqMYJvYFBllhz8Qg-5" target="GTU_rNjX-6D29jfX396c-7" edge="1">
          <mxGeometry relative="1" as="geometry" />
        </mxCell>
        <mxCell id="Vo1cLqMYJvYFBllhz8Qg-5" value="Gets the Context control from currently focused control" style="text;html=1;strokeColor=none;fillColor=none;align=center;verticalAlign=middle;whiteSpace=wrap;rounded=0;" parent="1" vertex="1">
          <mxGeometry x="291.5" y="170" width="145" height="30" as="geometry" />
        </mxCell>
        <mxCell id="62Zi-6ePFO4DLIWbidn9-4" style="edgeStyle=orthogonalEdgeStyle;rounded=0;orthogonalLoop=1;jettySize=auto;html=1;" edge="1" parent="1" source="62Zi-6ePFO4DLIWbidn9-1" target="GTU_rNjX-6D29jfX396c-16">
          <mxGeometry relative="1" as="geometry" />
        </mxCell>
        <mxCell id="62Zi-6ePFO4DLIWbidn9-1" value="Hardcoded interpretation" style="ellipse;whiteSpace=wrap;html=1;" vertex="1" parent="1">
          <mxGeometry x="206.5" y="550" width="120" height="80" as="geometry" />
        </mxCell>
        <mxCell id="62Zi-6ePFO4DLIWbidn9-3" value="This converts Interaction objects into a string. This is to &lt;br&gt;make it easier for the LLM to understand what&#39;s going on." style="text;html=1;align=center;verticalAlign=middle;resizable=0;points=[];autosize=1;strokeColor=none;fillColor=none;" vertex="1" parent="1">
          <mxGeometry x="399" y="570" width="330" height="40" as="geometry" />
        </mxCell>
        <mxCell id="62Zi-6ePFO4DLIWbidn9-5" value="LLM uses reasoning to infer information." style="text;html=1;align=center;verticalAlign=middle;resizable=0;points=[];autosize=1;strokeColor=none;fillColor=none;" vertex="1" parent="1">
          <mxGeometry x="444" y="695" width="240" height="30" as="geometry" />
        </mxCell>
      </root>
    </mxGraphModel>
  </diagram>
</mxfile>
